<svg width="32" height="32" viewBox="0 0 32 32" fill="none" xmlns="http://www.w3.org/2000/svg">
<path d="M6.94906 6.949C6.65617 7.24189 6.65617 7.71676 6.94906 8.00966L14.9394 16L6.94904 23.9903C6.65615 24.2832 6.65615 24.758 6.94904 25.0509C7.24193 25.3438 7.71681 25.3438 8.0097 25.0509L16 17.0606L23.9903 25.0509C24.2832 25.3438 24.7581 25.3438 25.051 25.0509C25.3439 24.758 25.3439 24.2832 25.051 23.9903L17.0607 16L25.051 8.00966C25.3439 7.71677 25.3439 7.24189 25.051 6.949C24.7581 6.65611 24.2832 6.65611 23.9903 6.949L16 14.9393L8.00972 6.949C7.71683 6.6561 7.24195 6.65611 6.94906 6.949Z" fill="#DC1E34"/>
</svg>
