<svg width="32" height="32" viewBox="0 0 32 32" fill="none" xmlns="http://www.w3.org/2000/svg">
<path fill-rule="evenodd" clip-rule="evenodd" d="M21.0611 12.9166C21.0611 17.3836 17.4399 21.0048 12.9729 21.0048C8.50597 21.0048 4.88477 17.3836 4.88477 12.9166C4.88477 8.44966 8.50597 4.82846 12.9729 4.82846C17.4399 4.82846 21.0611 8.44966 21.0611 12.9166ZM19.141 20.2578C17.4738 21.6601 15.322 22.5048 12.9729 22.5048C7.67754 22.5048 3.38477 18.212 3.38477 12.9166C3.38477 7.62124 7.67754 3.32846 12.9729 3.32846C18.2684 3.32846 22.5611 7.62124 22.5611 12.9166C22.5611 15.323 21.6746 17.5224 20.2104 19.2059L28.3958 27.3912C28.6886 27.6841 28.6886 28.159 28.3958 28.4519C28.1029 28.7448 27.628 28.7448 27.3351 28.4519L19.141 20.2578Z" fill="#191919"/>
</svg>
