<svg width="32" height="32" viewBox="0 0 32 32" fill="none" xmlns="http://www.w3.org/2000/svg">
<path fill-rule="evenodd" clip-rule="evenodd" d="M16.4342 25.0605C16.1743 24.738 16.225 24.2659 16.5475 24.0059L25.499 16.7906H4.0752C3.66098 16.7906 3.3252 16.4548 3.3252 16.0406C3.3252 15.6264 3.66098 15.2906 4.0752 15.2906H25.5997L16.5475 7.99411C16.225 7.73417 16.1743 7.26201 16.4342 6.93951C16.6942 6.61702 17.1663 6.56631 17.4888 6.82626L28.1339 15.4067C28.157 15.4245 28.1791 15.4438 28.2002 15.4646C28.2663 15.5292 28.3181 15.6037 28.3552 15.6839C28.4021 15.7844 28.425 15.8925 28.425 16C28.425 16.1076 28.4021 16.2156 28.3552 16.3162C28.3181 16.3963 28.2663 16.4708 28.2002 16.5354C28.1791 16.5562 28.157 16.5755 28.1339 16.5933L17.4888 25.1738C17.1663 25.4337 16.6942 25.383 16.4342 25.0605Z" fill="#DC1E34"/>
</svg>
