<svg width="24" height="24" viewBox="0 0 24 24" fill="none" xmlns="http://www.w3.org/2000/svg">
<path fill-rule="evenodd" clip-rule="evenodd" d="M2.40002 11.875C2.40002 11.5298 2.79076 11.25 3.27275 11.25L20.7273 11.25C21.2093 11.25 21.6 11.5298 21.6 11.875C21.6 12.2202 21.2093 12.5 20.7273 12.5L3.27275 12.5C2.79076 12.5 2.40002 12.2202 2.40002 11.875Z" fill="#191919"/>
<path fill-rule="evenodd" clip-rule="evenodd" d="M2.40002 17.375C2.40002 17.0298 2.79076 16.75 3.27275 16.75L20.7273 16.75C21.2093 16.75 21.6 17.0298 21.6 17.375C21.6 17.7202 21.2093 18 20.7273 18L3.27275 18C2.79076 18 2.40002 17.7202 2.40002 17.375Z" fill="#191919"/>
<path fill-rule="evenodd" clip-rule="evenodd" d="M2.40002 6.375C2.40002 6.02982 2.79076 5.75 3.27275 5.75L20.7273 5.75C21.2093 5.75 21.6 6.02982 21.6 6.375C21.6 6.72018 21.2093 7 20.7273 7L3.27275 7C2.79076 7 2.40002 6.72018 2.40002 6.375Z" fill="#191919"/>
</svg>
