<svg width="32" height="32" viewBox="0 0 32 32" fill="none" xmlns="http://www.w3.org/2000/svg">
<path fill-rule="evenodd" clip-rule="evenodd" d="M13.2309 4.81064C13.5992 4.6211 13.7441 4.16888 13.5546 3.80058C13.365 3.43228 12.9128 3.28736 12.5445 3.4769C8.80342 5.4022 6.24194 9.30307 6.24194 13.8035C6.24194 20.0189 11.1274 25.0934 17.2677 25.3961V27.1546H15.6404C15.2261 27.1546 14.8904 27.4904 14.8904 27.9046C14.8904 28.3188 15.2261 28.6546 15.6404 28.6546H20.3951C20.8093 28.6546 21.1451 28.3188 21.1451 27.9046C21.1451 27.4904 20.8093 27.1546 20.3951 27.1546H18.7677V25.3746C20.7433 25.2197 22.5813 24.5699 24.1559 23.5489C24.5035 23.3236 24.6025 22.8591 24.3772 22.5116C24.1518 22.164 23.6874 22.065 23.3398 22.2903C21.7592 23.3152 19.8747 23.9104 17.8489 23.9104C12.267 23.9104 7.74194 19.3854 7.74194 13.8035C7.74194 9.88667 9.96979 6.48893 13.2309 4.81064ZM11.778 13.7626C11.778 10.3164 14.5717 7.5226 18.018 7.5226C21.4643 7.5226 24.2581 10.3164 24.2581 13.7626C24.2581 17.2089 21.4643 20.0027 18.018 20.0027C14.5717 20.0027 11.778 17.2089 11.778 13.7626ZM10.278 13.7626C10.278 9.48793 13.7433 6.0226 18.018 6.0226C22.2927 6.0226 25.7581 9.48793 25.7581 13.7626C25.7581 18.0373 22.2927 21.5027 18.018 21.5027C13.7433 21.5027 10.278 18.0373 10.278 13.7626Z" fill="#191919"/>
</svg>
